<svg width="62" height="62" viewBox="0 0 62 62" fill="none" xmlns="http://www.w3.org/2000/svg">
<circle cx="31" cy="31" r="31" fill="#D9D9D9"/>
<path d="M31.011 18.4668C35.4589 18.4981 39.0993 22.1426 39.1256 26.5908C39.1374 28.7086 38.3278 30.7484 36.8668 32.2815L38.4083 33.823C40.281 31.8777 41.3204 29.2782 41.3053 26.578C41.2718 20.9435 36.6608 16.327 31.0263 16.2871C28.3201 16.2589 25.7122 17.3002 23.7696 19.1845L25.3109 20.7258C26.8428 19.257 28.8888 18.4462 31.011 18.4668ZM38.0359 36.5333L35.8562 34.3537L30.135 28.6324L27.2544 25.7518L25.5622 24.0596L16.1549 14.6523H14.6042V16.1842L21.2996 22.8795C20.8341 24.0787 20.5963 25.3542 20.5984 26.6406V28.8203H22.7781V26.6406C22.7775 25.9561 22.8623 25.2743 23.0306 24.6108L24.9599 26.5401C24.9584 26.5941 24.9576 26.6482 24.9576 26.7023V32.5417L25.3042 32.8879C26.0605 33.64 26.6601 34.5347 27.0683 35.5202C27.4765 36.5056 27.6852 37.5623 27.6824 38.6289H29.8621C29.8693 36.0418 28.8957 33.5481 27.1375 31.6503V28.7174L35.8562 37.4361V39.2193C35.855 40.363 35.4001 41.4596 34.5913 42.2683C33.7826 43.0771 32.686 43.532 31.5423 43.5332H29.8621V45.7129H31.5423C33.1973 45.7109 34.7892 45.0778 35.9936 43.9428C37.198 42.8077 37.9242 41.256 38.0242 39.604L45.7678 47.3477H47.2996V45.7969L38.0359 36.5333Z" fill="#114232"/>
<path d="M30.9066 20.6464C29.4011 20.659 27.9566 21.2431 26.8655 22.2806L28.4062 23.8213C29.0926 23.1889 29.9895 22.8342 30.9228 22.8261H30.9519C31.9636 22.8261 32.9338 23.228 33.6491 23.9433C34.3645 24.6587 34.7664 25.6289 34.7664 26.6406H36.9461C36.9461 25.8496 36.7895 25.0664 36.4855 24.3362C36.1814 23.606 35.7358 22.9432 35.1744 22.386C34.613 21.8288 33.9469 21.3882 33.2144 21.0896C32.4819 20.7911 31.6976 20.6404 30.9066 20.6464Z" fill="#114232"/>
</svg>
